<?xml version="1.0" encoding="UTF-8" standalone="no"?>
<!DOCTYPE svg PUBLIC "-//W3C//DTD SVG 1.1//EN" "http://www.w3.org/Graphics/SVG/1.1/DTD/svg11.dtd">
<svg width="100%" height="100%" viewBox="0 0 512 512" version="1.1" xmlns="http://www.w3.org/2000/svg" xmlns:xlink="http://www.w3.org/1999/xlink" xml:space="preserve" xmlns:serif="http://www.serif.com/" style="fill-rule:evenodd;clip-rule:evenodd;stroke-linejoin:round;stroke-miterlimit:2;">
    <path d="M437.456,512L21.212,512C13.046,512 6.426,505.379 6.426,497.214L6.426,256.915C6.426,248.75 13.046,242.129 21.212,242.129C29.378,242.129 35.998,248.75 35.998,256.915L35.998,482.427L422.669,482.427L422.669,449.488C422.669,441.323 429.289,434.702 437.455,434.702C445.621,434.702 452.241,441.323 452.241,449.488L452.241,497.213C452.242,505.379 445.622,512 437.456,512Z" style="fill:rgb(55,25,130);fill-rule:nonzero;"/>
    <g>
        <path d="M21.212,177.092L21.212,172.3L176.068,14.786L176.068,177.092L21.212,177.092Z" style="fill:rgb(140,255,13);fill-rule:nonzero;"/>
        <g transform="matrix(1.20292,0,0,1,-110.861,0)">
            <rect x="196.524" y="219.426" width="294.274" height="163.712" style="fill:rgb(140,255,13);"/>
        </g>
    </g>
    <g>
        <path d="M490.791,204.634L452.242,204.634L452.242,14.786C452.242,6.621 445.622,0 437.456,0L176.068,0C176.001,0 175.936,0.009 175.87,0.01C175.511,0.014 175.153,0.032 174.795,0.063C174.675,0.073 174.554,0.084 174.434,0.097C174.024,0.143 173.618,0.202 173.214,0.282C173.183,0.288 173.153,0.291 173.122,0.297C172.69,0.386 172.264,0.497 171.842,0.622C171.731,0.655 171.622,0.693 171.512,0.728C171.19,0.833 170.87,0.948 170.554,1.075C170.446,1.119 170.337,1.161 170.23,1.207C169.423,1.553 168.645,1.973 167.904,2.464C167.802,2.531 167.704,2.603 167.604,2.671C167.33,2.862 167.063,3.063 166.801,3.274C166.702,3.354 166.603,3.431 166.507,3.514C166.168,3.801 165.837,4.1 165.522,4.42L10.668,161.935C10.322,162.287 9.997,162.654 9.691,163.035C9.509,163.261 9.349,163.498 9.182,163.731C9.07,163.888 8.948,164.04 8.842,164.201C8.648,164.495 8.478,164.8 8.308,165.104C8.246,165.216 8.175,165.323 8.116,165.437C7.95,165.752 7.808,166.076 7.667,166.4C7.617,166.514 7.559,166.625 7.512,166.74C7.386,167.052 7.281,167.368 7.176,167.686C7.13,167.825 7.077,167.96 7.036,168.099C6.949,168.393 6.884,168.69 6.816,168.988C6.776,169.16 6.729,169.328 6.695,169.503C6.642,169.777 6.611,170.053 6.574,170.328C6.547,170.529 6.512,170.727 6.493,170.928C6.468,171.196 6.463,171.463 6.453,171.729C6.446,171.92 6.425,172.109 6.425,172.3L6.425,177.092C6.425,185.257 13.045,191.878 21.211,191.878L176.066,191.878C184.232,191.878 190.852,185.257 190.852,177.092L190.852,29.572L422.668,29.572L422.668,204.634L113.518,204.634C105.352,204.634 98.732,211.255 98.732,219.42L98.732,383.125C98.732,391.29 105.352,397.911 113.518,397.911L490.79,397.911C498.956,397.911 505.576,391.29 505.576,383.125L505.576,219.421C505.577,211.256 498.957,204.634 490.791,204.634ZM51.772,162.308L99.71,113.548L161.281,50.918L161.281,162.308L51.772,162.308ZM476.005,368.339L128.305,368.339L128.305,234.207L476.005,234.207L476.005,368.339Z" style="fill:rgb(55,25,130);fill-rule:nonzero;"/>
        <g transform="matrix(1,0,0,1,-4.65771,0)">
            <g transform="matrix(1,0,0,1,-90,0)">
                <path d="M246.08,260.736C246.08,257.536 249.005,254.721 253.455,254.721L279.777,254.721C296.562,254.721 309.785,262.655 309.785,284.154L309.785,284.794C309.785,306.293 296.052,314.483 278.505,314.483L265.916,314.483L265.916,342.124C265.916,346.22 260.957,348.266 255.997,348.266C251.037,348.266 246.078,346.218 246.078,342.124L246.08,260.736ZM265.916,272.124L265.916,299.126L278.505,299.126C285.626,299.126 289.949,295.03 289.949,286.329L289.949,284.923C289.949,276.22 285.626,272.126 278.505,272.126L265.916,272.126L265.916,272.124Z" style="fill:rgb(55,25,130);fill-rule:nonzero;"/>
            </g>
            <g transform="matrix(1,0,0,1,-90,0)">
                <path d="M349.586,254.721C367.134,254.721 380.868,262.911 380.868,284.923L380.868,318.068C380.868,340.079 367.135,348.269 349.586,348.269L327.079,348.269C321.865,348.269 318.432,345.454 318.432,342.255L318.432,260.737C318.432,257.537 321.865,254.722 327.079,254.722L349.586,254.722L349.586,254.721ZM338.269,272.124L338.269,330.863L349.586,330.863C356.707,330.863 361.03,326.767 361.03,318.067L361.03,284.922C361.03,276.219 356.707,272.125 349.586,272.125L338.269,272.125L338.269,272.124Z" style="fill:rgb(55,25,130);fill-rule:nonzero;"/>
            </g>
            <g transform="matrix(1,0,0,1,-90,0)">
                <path d="M393.458,260.863C393.458,256.767 397.781,254.721 402.105,254.721L446.23,254.721C450.426,254.721 452.207,259.2 452.207,263.295C452.207,268.03 450.045,272.125 446.23,272.125L413.295,272.125L413.295,293.753L432.496,293.753C436.311,293.753 438.473,297.464 438.473,301.559C438.473,305.015 436.693,309.109 432.496,309.109L413.295,309.109L413.295,342.125C413.295,346.221 408.336,348.267 403.376,348.267C398.417,348.267 393.457,346.219 393.457,342.125L393.457,260.863L393.458,260.863Z" style="fill:rgb(55,25,130);fill-rule:nonzero;"/>
            </g>
            <g transform="matrix(1,0,0,1,237.403,0)">
                <path d="M168.167,314.735L152.498,299.065C148.595,295.163 142.258,295.163 138.356,299.065C134.453,302.968 134.453,309.305 138.356,313.207L171.096,345.948L171.142,345.994C171.142,345.994 171.149,346 171.149,346C172.091,346.929 173.173,347.633 174.326,348.111L174.354,348.123C175.53,348.609 176.817,348.877 178.167,348.877C179.517,348.877 180.805,348.609 181.981,348.123L182.009,348.111C182.115,348.068 182.219,348.022 182.323,347.975L182.382,347.948L182.439,347.921L182.49,347.897L182.545,347.87L182.6,347.843L182.655,347.816L182.71,347.788L182.764,347.76L182.819,347.732L182.873,347.703L182.927,347.674L182.981,347.644L183.035,347.615L183.089,347.584L183.143,347.554L183.196,347.523L183.249,347.492L183.303,347.46L183.356,347.428L183.409,347.396L183.461,347.363L183.514,347.33L183.566,347.297L183.618,347.263L183.67,347.229L183.722,347.194L183.774,347.159L183.826,347.124L183.877,347.089L183.928,347.053L183.979,347.016L184.03,346.98L184.081,346.943L184.131,346.906L184.182,346.868L184.232,346.83L184.282,346.791L184.331,346.753L184.381,346.713L184.43,346.674L184.479,346.634L184.528,346.594L184.577,346.553L184.626,346.513L184.674,346.471L184.722,346.43L184.77,346.388L184.818,346.345L184.866,346.303L184.913,346.26L184.96,346.216L185.007,346.172L185.054,346.128L185.1,346.084L185.147,346.039L185.193,345.994L185.239,345.948C185.239,345.948 217.979,313.207 217.979,313.207C221.882,309.305 221.882,302.968 217.979,299.065C214.077,295.163 207.74,295.163 203.837,299.065L188.167,314.735L188.167,264.113C188.167,258.594 183.687,254.113 178.167,254.113C172.648,254.113 168.167,258.594 168.167,264.113L168.167,314.735Z" style="fill:rgb(55,25,130);"/>
            </g>
        </g>
    </g>
</svg>
